2.6Hz3min_grf.mot
version=1
nRows=12
nColumns 19
inDegrees=yes
endheader
time	1_ground_force_vx	1_ground_force_vy	1_ground_force_vz	1_ground_force_px	1_ground_force_py	1_ground_force_pz	1_ground_torque_x	1_ground_torque_y	1_ground_torque_z	2_ground_force_vx	2_ground_force_vy	2_ground_force_vz	2_ground_force_px	2_ground_force_py	2_ground_force_pz	2_ground_torque_x	2_ground_torque_y	2_ground_torque_z
            3.751500	           -9.352063	           97.029893	          -10.933316	           -0.260338	            0.006051	           -0.366434	            0.019582	           -0.203170	            0.022893	           -4.835365	           95.319704	           15.171550	           -0.276739	            0.005459	           -0.690470	           -0.019323	            0.380923	            0.060630
            3.752000	           -9.259623	           94.145266	          -10.854199	           -0.260652	            0.006053	           -0.366876	            0.013818	           -0.140495	            0.016198	           -5.111045	           93.844665	           15.401054	           -0.276128	            0.005467	           -0.692200	           -0.016760	            0.307737	            0.050503
            3.752500	           -9.854782	           92.882309	          -10.628851	           -0.260500	            0.006043	           -0.364623	            0.016550	           -0.155985	            0.017850	           -5.194275	           90.899293	           15.015156	           -0.277497	            0.005458	           -0.690912	           -0.015793	            0.276380	            0.045654
            3.753000	           -9.716646	           90.178153	          -10.594931	           -0.261458	            0.006044	           -0.364767	            0.016325	           -0.151506	            0.017800	           -5.698428	           87.767755	           14.769564	           -0.276357	            0.005456	           -0.689283	           -0.018910	            0.291260	            0.049013
            3.753500	           -9.853211	           88.013956	          -10.374586	           -0.261110	            0.006038	           -0.363327	            0.014068	           -0.125658	            0.014812	           -5.788120	           86.662359	           14.812590	           -0.275570	            0.005468	           -0.691761	           -0.017550	            0.262770	            0.044913
            3.754000	           -9.944143	           85.129294	          -10.295014	           -0.261070	            0.006041	           -0.364014	            0.020225	           -0.173144	            0.020939	           -6.200608	           84.083932	           14.475074	           -0.275347	            0.005465	           -0.690791	           -0.019916	            0.270073	            0.046493
            3.754500	          -10.034050	           82.242863	           -9.802738	           -0.259119	            0.006047	           -0.365287	            0.021258	           -0.174235	            0.020767	           -6.467291	           80.033328	           13.991457	           -0.276595	            0.005452	           -0.688514	           -0.021874	            0.270692	            0.047322
            3.755000	           -9.896237	           78.818431	           -9.955334	           -0.260367	            0.006046	           -0.365193	            0.017797	           -0.141741	            0.017903	           -6.789924	           78.558957	           13.986340	           -0.276061	            0.005453	           -0.688233	           -0.025846	            0.299036	            0.053239
            3.755500	          -10.307518	           76.653591	           -9.596738	           -0.260166	            0.006039	           -0.363635	            0.022134	           -0.164605	            0.020608	           -7.061780	           75.980368	           13.836476	           -0.274806	            0.005457	           -0.688133	           -0.036437	            0.392043	            0.071393
            3.756000	          -10.307887	           74.311513	           -9.927778	           -0.261404	            0.006044	           -0.364844	            0.012624	           -0.091012	            0.012159	           -7.056628	           74.508520	           13.455795	           -0.275598	            0.005458	           -0.689146	           -0.025376	            0.267941	            0.048389
            3.756500	          -10.674024	           71.607261	           -9.892606	           -0.260887	            0.006051	           -0.366299	            0.015976	           -0.107175	            0.014806	           -7.798915	           72.480174	           13.448886	           -0.275943	            0.005454	           -0.688355	           -0.035542	            0.330317	            0.061291
            3.757000	          -10.764859	           69.443269	           -9.718231	           -0.261843	            0.006048	           -0.365816	            0.019556	           -0.126155	            0.017655	           -7.980998	           71.006311	           13.443709	           -0.274662	            0.005468	           -0.690867	           -0.033533	            0.298339	            0.056485
